<svg version="1.2" xmlns="http://www.w3.org/2000/svg" viewBox="0 0 1000 1000" width="1000" height="1000">
	<title>4197038-ai</title>
	<defs>
		<clipPath clipPathUnits="userSpaceOnUse" id="cp1">
			<path d="m466.17 467.8q-7.96 13.7-18.37 10.99l-21.5-6.59q-5.84-9.9 4.66-17.91c2.09-1.59 3.67-3.73 4.52-6.22 3.87-11.34 15.51-43.15 30.32-62.03q5.87-16.21 10.93-12.37 2.55-10.73 11.68-8.32c11.53-4.91 44-14 89-8 22.87 3.04 41.47 6.1 52.66 12.57 22.34 10.93 21.11 19.5 22.84 33.93 1.97 16.39 5.5 51.5 5 71-0.41 16.08-7.98 25.77-18.48 28.68 2.03 20.69 3.85 40.38 3.48 55.32q-67.5 13.5-131.5 0-13-68.5-23-104.5-1.43-5.14-2.83-10.45c-1.87-6.98-12.75 12.44-19.41 23.9z"/>
		</clipPath>
		<clipPath clipPathUnits="userSpaceOnUse" id="cp2">
			<path d="m575.31 402.01q-14.9-8.33-21.23 0-6.34 8.34-14.34 12.34-3.66-10.35-5.66-15.18-2-4.82-13.67 0-8.33-18.69 0-41.92 8.67-14.9 49.67-7.9 8.58 1.84 10.45 8.42 4.34 27.57-5.22 44.24zm-7.26-49.26c-7.95-1.76-27.23-4.71-42.98 3.31-0.94 0.48-1.6 1.38-1.81 2.41-0.88 4.25-2.6 15.9 2.48 25.09 6.34 11.45 10.34 7.45 15 25.79q14-2.23 29.88-52.08c0.63-1.97-0.55-4.07-2.57-4.52z"/>
		</clipPath>
		<clipPath clipPathUnits="userSpaceOnUse" id="cp3">
			<path d="m367.68 250.69c0 27.48-22.27 49.76-49.75 49.76-27.48 0-49.76-22.28-49.76-49.76 0-27.48 22.28-49.75 49.76-49.75 27.48 0 49.75 22.27 49.75 49.75z"/>
		</clipPath>
		<clipPath clipPathUnits="userSpaceOnUse" id="cp4">
			<path d="m713.39 239.44c0 23.45-19.01 42.46-42.47 42.46-23.45 0-42.47-19.01-42.47-42.46 0-23.46 19.02-42.47 42.47-42.47 23.46 0 42.47 19.01 42.47 42.47z"/>
		</clipPath>
		<clipPath clipPathUnits="userSpaceOnUse" id="cp5">
			<path d="m825.55 329.25c0 23.4-18.96 42.36-42.36 42.36-23.39 0-42.35-18.96-42.35-42.36 0-23.39 18.96-42.35 42.35-42.35 23.4 0 42.36 18.96 42.36 42.35z"/>
		</clipPath>
		<clipPath clipPathUnits="userSpaceOnUse" id="cp6">
			<path d="m729.04 522.5h58.86v29.73h-58.86z"/>
		</clipPath>
	</defs>
	<style>
		tspan { white-space:pre } 
		.s0 { fill: #66ade9 } 
		.s1 { opacity: .7;fill: #ffffff } 
		.s2 { fill: none;stroke: #263238;stroke-linecap: round;stroke-linejoin: round;stroke-width: 2 } 
		.s3 { opacity: .3;fill: #000000 } 
		.s4 { fill: #000000;stroke: #263238;stroke-linecap: round;stroke-linejoin: round;stroke-width: 2 } 
		.s5 { opacity: .3;fill: #ffffff } 
		.s6 { fill: #66ade9;stroke: #263238;stroke-linecap: round;stroke-linejoin: round;stroke-width: 2 } 
		.s7 { fill: #263238;stroke: #263238;stroke-linecap: round;stroke-linejoin: round;stroke-width: 2 } 
		.s8 { fill: #858585;stroke: #263238;stroke-linecap: round;stroke-linejoin: round;stroke-width: 2 } 
		.s9 { fill: #999999;stroke: #263238;stroke-linecap: round;stroke-linejoin: round;stroke-width: 2 } 
		.s10 { fill: #ffffff;stroke: #263238;stroke-linecap: round;stroke-linejoin: round;stroke-width: 2 } 
		.s11 { fill: none;stroke: #7f7f7f;stroke-linecap: round;stroke-linejoin: round;stroke-width: 1.5 } 
		.s12 { fill: none;stroke: #7f7f7f;stroke-linecap: round;stroke-linejoin: round;stroke-width: 2 } 
		.s13 { fill: none;stroke: #263238;stroke-linecap: round;stroke-linejoin: round;stroke-width: 1.5 } 
		.s14 { fill: #999999;stroke: #263238;stroke-linecap: round;stroke-linejoin: round;stroke-width: 1.5 } 
		.s15 { fill: #ffffff } 
		.s16 { opacity: .4;fill: #ffffff } 
		.s17 { fill: #263238 } 
		.s18 { fill: #ffffff;stroke: #263238;stroke-linecap: round;stroke-linejoin: round;stroke-width: 1.5 } 
		.s19 { fill: #66ade9;stroke: #263238;stroke-linecap: round;stroke-linejoin: round;stroke-width: 1.5 } 
		.s20 { opacity: .2;fill: #000000 } 
		.t21 { font-size: 34px;fill: #ffffff;font-weight: 700;font-family: "DejaVuSans-Bold", "DejaVu Sans" } 
		.t22 { font-size: 25px;fill: #ffffff;font-weight: 700;font-family: "DejaVuSans-Bold", "DejaVu Sans" } 
		.s23 { fill: #66ade9;stroke: #263238;stroke-width: 2 } 
		.s24 { opacity: .3;fill: #468ac4 } 
		.t25 { font-size: 20px;fill: #ffffff;font-weight: 700;font-family: "DejaVuSans-Bold", "DejaVu Sans" } 
	</style>
	<g id="Background Simple">
		<g id="&lt;Group&gt;">
			<path id="&lt;Path&gt;" class="s0" d="m374.1 644.2c-95.4-29.3-313.6-98.3-272.1-291.9 48-223.7 312.4-72 474.7-147.7 114.8-53.5 354.5-109.9 336.9 131.8-17.2 235.1-27 405.4-166.3 445.8-139.3 40.4-229.1-93.6-373.2-138z"/>
			<path id="&lt;Path&gt;" class="s1" d="m374.1 644.2c-95.4-29.3-313.6-98.3-272.1-291.9 48-223.7 312.4-72 474.7-147.7 114.8-53.5 354.5-109.9 336.9 131.8-17.2 235.1-27 405.4-166.3 445.8-139.3 40.4-229.1-93.6-373.2-138z"/>
		</g>
	</g>
	<g id="Floor">
		<path id="&lt;Path&gt;" class="s2" d="m86.4 817h827.2"/>
	</g>
	<g id="Plant">
		<g id="&lt;Group&gt;">
			<path id="&lt;Path&gt;" class="s0" d="m165.2 567.8c-2-25.3 42.9 1.8 48.6-9.2 7.4-14.4-49.6-37.4-23.5-60.6 26.1-23.3 23.4 42.5 37.6 42.5 18.3 0 12.2-68.8 40.5-60.7 28.3 8-32.4 55.6-20.2 68.8 13.2 14.3 63.7-43.6 77.9-5.1 14.1 38.4-70.3 14.3-75.4 34.4-3.6 14.3 60.2 29.3 22.8 54.6-37.5 25.3-33.5-33.4-45.6-43.5-12.7-10.6-60.7 4.1-62.7-21.2z"/>
			<path id="&lt;Path&gt;" class="s2" d="m236 558.9q-27.3 33.2-24.2 123.2"/>
			<g id="&lt;Group&gt;">
				<g id="&lt;Group&gt;">
					<path id="&lt;Path&gt;" class="s0" d="m289.3 605.8c-4.9-9.7-45-16.4-22.1-37.5 23-21.2 22.9 24.1 33.2 24 14.3-0.3 11.5-60.9 35.1-45.2 23.6 15.6-23.3 40.3-15.8 51.5 6.9 10.3 48.5-23 49.5-2.6 0.9 20.3-44.4 5.3-47.3 17.5-2.3 9.6 42.4 18.2 22.6 32.1-19.8 13.8-26.2-28.2-37-25.4-8.3 2 2.7 36.5-13.9 31.1-16.7-5.3 0.7-35.3-4.3-45.5z"/>
					<path id="&lt;Path&gt;" class="s3" d="m289.3 605.8c-4.9-9.7-45-16.4-22.1-37.5 23-21.2 22.9 24.1 33.2 24 14.3-0.3 11.5-60.9 35.1-45.2 23.6 15.6-23.3 40.3-15.8 51.5 6.9 10.3 48.5-23 49.5-2.6 0.9 20.3-44.4 5.3-47.3 17.5-2.3 9.6 42.4 18.2 22.6 32.1-19.8 13.8-26.2-28.2-37-25.4-8.3 2 2.7 36.5-13.9 31.1-16.7-5.3 0.7-35.3-4.3-45.5z"/>
				</g>
				<path id="&lt;Path&gt;" class="s4" d="m309.9 606.2q-77.7-8.1-85.4 75.9"/>
			</g>
			<g id="&lt;Group&gt;">
				<g id="&lt;Group&gt;">
					<path id="&lt;Path&gt;" class="s0" d="m161.7 597.1c-12.1 10.1-8.1 68.8-45.5 43.5-37.5-25.3 26.4-40.3 22.7-54.6-5.1-20.1-89.5 4-75.3-34.4 14.1-38.5 64.6 19.4 77.9 5 12.1-13.1-48.6-60.7-20.3-68.8 28.3-8 22.2 60.8 40.5 60.8 14.2-0.1 11.5-65.8 37.6-42.5 26.1 23.2-30.9 46.2-23.4 60.6 5.6 11 50.5-16.1 48.5 9.2-2 25.3-50 10.6-62.7 21.2z"/>
					<path id="&lt;Path&gt;" class="s5" d="m161.7 597.1c-12.1 10.1-8.1 68.8-45.5 43.5-37.5-25.3 26.4-40.3 22.7-54.6-5.1-20.1-89.5 4-75.3-34.4 14.1-38.5 64.6 19.4 77.9 5 12.1-13.1-48.6-60.7-20.3-68.8 28.3-8 22.2 60.8 40.5 60.8 14.2-0.1 11.5-65.8 37.6-42.5 26.1 23.2-30.9 46.2-23.4 60.6 5.6 11 50.5-16.1 48.5 9.2-2 25.3-50 10.6-62.7 21.2z"/>
				</g>
				<path id="&lt;Path&gt;" class="s2" d="m153.1 567q35.4 47.3 43.5 126.2"/>
			</g>
			<path id="&lt;Path&gt;" class="s6" d="m158.2 798.1l-8.7-102c-1-11.9 8.3-22.1 20.2-22.1h72.6c11.9 0 21.3 10.2 20.3 22.1l-8.7 102c-0.9 10.5-9.7 18.6-20.3 18.6h-55.2c-10.5 0-19.3-8.1-20.2-18.6z"/>
		</g>
	</g>
	<g id="Character">
		<g id="&lt;Group&gt;">
			<g id="&lt;Group&gt;">
				<path id="&lt;Path&gt;" class="s7" d="m591.8 670.2q-18.5 0-71.8-12h143.5q-53.3 12-71.7 12z"/>
				<path id="&lt;Path&gt;" class="s8" d="m608.2 686.7h-32.9v-22.5h32.9z"/>
				<path id="&lt;Path&gt;" class="s9" d="m613.1 783.6h-42.6v-96.9h42.6z"/>
				<path id="&lt;Path&gt;" class="s8" d="m671.8 629.4c-11.1 0-16.6 0-27.7 0 3.1-19.1 5.3-38.5 6.7-57.8 11.1 0 16.6 0 27.7 0-1.4 19.3-3.6 38.7-6.7 57.8z"/>
				<path id="&lt;Path&gt;" class="s8" d="m741.5 426.8c1.4 43.4-0.4 85.9-5.2 129.1-1.7 12.6-13 22.4-25.7 22.4q-50.2 0-100.5 0c-12.6 0-22.2-9.8-22.5-22.4-1.5-43.7-6-86.2-13.6-129.1-2.7-14 6.4-25.8 20.5-25.8q59.7 0 119.3 0c14.1 0 27 11.8 27.7 25.8z"/>
				<path id="&lt;Path&gt;" class="s9" d="m720.3 426.8c1.4 43.4-0.4 85.9-5.2 129.1-1.6 12.6-13 22.4-25.7 22.4q-39.6 0-79.3 0c-12.6 0-22.2-9.8-22.5-22.4-1.5-43.7-6-86.2-13.6-129.1-2.7-14 6.4-25.8 20.5-25.8q49.1 0 98.2 0c14 0 27 11.8 27.6 25.8z"/>
				<path id="&lt;Path&gt;" class="s7" d="m663.5 801c0 2.3-2.1 4-4.3 3.5-13.1-2.8-52.2-11.1-67.4-11.1-15.3 0-54.4 8.3-67.5 11.1-2.2 0.5-4.3-1.2-4.3-3.5 0-4.4 3.1-8.2 7.4-9.1 15.3-3.3 50.1-10.4 64.4-10.4 14.2 0 49 7.1 64.3 10.4 4.3 0.9 7.4 4.7 7.4 9.1z"/>
				<g id="&lt;Group&gt;">
					<path id="&lt;Compound Path&gt;" fill-rule="evenodd" class="s8" d="m532.3 806.1c0 6.8-5.5 12.3-12.3 12.3-6.8 0-12.3-5.5-12.3-12.3 0-6.8 5.5-12.3 12.3-12.3 6.8 0 12.3 5.5 12.3 12.3zm-5.6 0c0-3.7-3-6.7-6.7-6.7-3.7 0-6.6 3-6.6 6.7 0 3.7 2.9 6.6 6.6 6.6 3.7 0 6.7-2.9 6.7-6.6z"/>
					<path id="&lt;Compound Path&gt;" fill-rule="evenodd" class="s8" d="m604 806.1c0 6.8-5.5 12.3-12.2 12.3-6.8 0-12.3-5.5-12.3-12.3 0-6.8 5.5-12.3 12.3-12.3 6.7 0 12.2 5.5 12.2 12.3zm-5.6 0c0-3.7-3-6.7-6.6-6.7-3.7 0-6.7 3-6.7 6.7 0 3.7 3 6.6 6.7 6.6 3.6 0 6.6-2.9 6.6-6.6z"/>
					<path id="&lt;Compound Path&gt;" fill-rule="evenodd" class="s8" d="m674.3 806.1c0 6.8-5.5 12.3-12.3 12.3-6.8 0-12.3-5.5-12.3-12.3 0-6.8 5.5-12.3 12.3-12.3 6.8 0 12.3 5.5 12.3 12.3zm-5.6 0c0-3.7-3-6.7-6.7-6.7-3.7 0-6.6 3-6.6 6.7 0 3.7 2.9 6.6 6.6 6.6 3.7 0 6.7-2.9 6.7-6.6z"/>
				</g>
				<path id="&lt;Path&gt;" class="s9" d="m628.1 663.4c-48.3 1.5-95.4-0.6-143.4-6.4-9.7-1.3-17.6-10.5-17.6-20.3 0-0.9 0-1.4 0-2.3 0-9.8 7.9-16.5 17.6-15.2 48 5.8 95.1 7.8 143.4 6.3 0 15.2 0 22.7 0 37.9z"/>
				<path id="&lt;Path&gt;" class="s8" d="m703.3 656.4c-29.7 3.7-59.2 6.2-89.1 7.5-7.3 0.2-13.2-5.6-13.2-12.9 0-4.6 0-6.9 0-11.5 0-7.3 5.9-13.2 13.2-13.4 29.9-1.3 59.4-3.8 89.1-7.5 7.3-1 13.1 3.9 13.1 11.2 0 4.6 0 6.9 0 11.5 0 7.3-5.8 14.1-13.1 15.1z"/>
			</g>
			<g id="&lt;Group&gt;">
				<g id="&lt;Group&gt;">
					<g id="&lt;Group&gt;">
						<g id="&lt;Group&gt;">
							<path id="&lt;Path&gt;" class="s10" d="m499.7 816.7h-97c-2.5 0-4.6-2.1-4.6-4.7-1-8.7 19.2-13.3 26-15.7q10.1-3.5 37.6-16.6l-9-28.4 32-13.6 10.3 37c7.9 17.2 9.2 30.6 9.3 37.3 0.1 2.6-2 4.7-4.6 4.7z"/>
							<path id="&lt;Path&gt;" class="s6" d="m498.2 782.4c5.1 13.5 6.1 23.9 6.1 29.6 0.1 2.6-2 4.7-4.6 4.7h-97c-2.5 0-4.6-2.1-4.6-4.7-1-8.7 19.2-13.3 26-15.7q10.1-3.5 37.6-16.6 6.7 8.3 0 13.6c-6.6 5.4 20 0.7 25-3 5-3.6 6-7.8 11.5-7.9z"/>
						</g>
						<g id="&lt;Group&gt;">
							<path id="&lt;Path&gt;" class="s10" d="m524.4 813.3c1.5-11.7 12.6-11.9 17.5-14q7-2.8 21.6-19l-4.6-29 36.4-6.1 0.6 34c6.4 16.7 6.7 29.4 5.6 35-0.3 1.4-1.6 2.5-3 2.5h-71c-1.8 0-3.3-1.6-3.1-3.4z"/>
							<path id="&lt;Path&gt;" class="s6" d="m595.9 779.2c6.4 16.7 6.7 29.4 5.6 35-0.3 1.4-1.6 2.5-3 2.5h-71c-1.8 0-3.3-1.6-3.1-3.4 1.5-11.7 12.6-11.9 17.5-14q7-2.8 21.6-19 14.4 0.3 10.9 8.2c-3.5 7.8 2 7.2 9.5 2 7.5-5.3 6.5-10 12-11.3z"/>
						</g>
						<path id="&lt;Path&gt;" class="s7" d="m588.1 552.2q24.6 39.5-17.3 56.8-42 17.3-117.8 26.7 16.9 24 39.4 115.3-13 8-41 13.3-56-128-56.7-152c-0.6-24 60-38.6 89.3-43.3q29.3-4.7 36.4-12z"/>
						<path id="&lt;Path&gt;" class="s7" d="m639.6 552.2c0.2 10.6 11.1 40.1 5.3 59.5q-5.8 19.3-63.4 30 20.1 33.3 17.2 110.6-17.3 7.4-43.1 11.4c-11.1-76-28.2-108-33.3-130.7-5.2-22.7 40.4-41.3 48.5-51.3q8-10-2.7-28.1z"/>
						<g id="&lt;Group&gt;">
							<path id="&lt;Path&gt;" class="s11" d="m533.4 582.3q-1.9-0.2-4 0"/>
							<path id="&lt;Path&gt;" class="s11" d="m535.9 570.3q11.8 3.5 16.5 18.9c0.4 1.3-1.2 2.2-2.1 1.3-2.4-2.5-6.3-5.6-11.3-7.2"/>
						</g>
						<path id="&lt;Path&gt;" class="s11" d="m447.4 634.8c0-6.5-28-10-20.5-16q7.5-6 24.5 13.5"/>
						<path id="&lt;Path&gt;" class="s11" d="m585 660.8c0-7.4-26.8-11.5-25.4-19.5q1.3-8 18.3 7.8"/>
						<path id="&lt;Path&gt;" class="s9" d="m449.6 762.4c26.8-7 38.7-12.6 42.9-14.9 1.1-0.6 2.3 0 2.6 1.1l1.8 7.6c0.2 0.7 0 1.4-0.6 1.8-9.5 6.8-36.4 13.2-42.9 14.6-0.8 0.2-1.7-0.2-2-1l-2.9-6.8c-0.5-1 0.1-2.1 1.1-2.4z"/>
						<path id="&lt;Path&gt;" class="s9" d="m552.3 759.2c-0.1-1 0.8-1.9 1.8-1.5 1.9 0.7 5.2 1.3 10.1 0.1 7.4-1.6 28.6-8.4 34.9-10.4 0.9-0.3 1.8 0.4 1.8 1.3v8.9c0 0.5-0.3 1-0.8 1.2-5 2.3-31.5 13.6-45.4 10.5-0.6-0.1-1-0.6-1.1-1.1z"/>
						<g id="&lt;Group&gt;">
							<path id="&lt;Path&gt;" class="s12" d="m573.7 574.1c-0.3 2.7-1.1 5.3-2.9 7.6-5.9 7.3-31.7 19.2-43.3 33.9"/>
							<path id="&lt;Path&gt;" class="s12" d="m572.4 563.9c0.5 1.5 0.8 3 1.1 4.5"/>
						</g>
					</g>
					<path id="&lt;Path&gt;" class="s2" d="m499 802.1q-3.8 3.4-4 8.2h-72.2q-1.5-6.3-3.5-9.5"/>
					<path id="&lt;Path&gt;" class="s2" d="m598.3 802.1q0 3.7-2 8.2h-37.8q-3.7-8.7-13.7-9.5"/>
				</g>
				<g id="&lt;Group&gt;">
					<g id="&lt;Group&gt;">
						<g id="&lt;Clip Group&gt;" clip-path="url(#cp1)">
							<path id="&lt;Path&gt;" class="s3" d="m451.8 469.7q-0.5-9.9-8.5-11.7c-8-1.7 2.2-4.7 8.5-3.2 6.2 1.5 4.8-4 10.1-13 5.4-9 8-16.2 12.5-11 4.6 5.2 9.3 5.9 11.2 13.1q1.9 7.2-7.6 23.9l-14.9 11.6-7.6 4.2h-11.3l-3.9-9.8z"/>
							<path id="&lt;Path&gt;" class="s6" d="m466.2 467.8q-8 13.7-18.4 11l-21.5-6.6q-5.8-9.9 4.7-17.9c2-1.6 3.6-3.7 4.5-6.2 3.9-11.4 15.5-43.2 30.3-62.1q5.9-16.2 10.9-12.3 2.6-10.8 11.7-8.4c11.5-4.9 44-14 89-8 22.9 3.1 41.5 6.2 52.7 12.6 22.3 10.9 21.1 19.5 22.8 33.9 2 16.4 5.5 51.5 5 71-0.4 16.1-8 25.8-18.5 28.7 2.1 20.7 3.9 40.4 3.5 55.3q-67.5 13.5-131.5 0-13-68.5-23-104.5-1.4-5.1-2.8-10.4c-1.9-7-12.8 12.4-19.4 23.9z"/>
						</g>
						<path id="&lt;Path&gt;" class="s3" d="m511.4 558.8q-4.3-22.5-9.8-48.5c14.4 1.9 73 8.8 103.2 1.5 34.6-8.3-29 15.5-27 32 2 16.5 65.4 7 63.2-23.4 1.3 14.3 2.2 27.6 1.9 38.4q-67.5 13.5-131.5 0z"/>
						<path id="&lt;Path&gt;" class="s3" d="m613.8 405.8c-0.3 16.9 1 36.2 2.3 50.6 0.2 2.3-1.3 4.4-3.6 5.1-6.3 1.8-19.5 5.5-33.1 8.2 0 0 25.4-9.4 25.4-23.4q0-14 9-40.5z"/>
					</g>
					<path id="&lt;Path&gt;" class="s13" d="m477.2 399.2q-0.3 19 6.7 36.6c0.6 1.6-1.2 3.1-2.6 2-3.5-2.4-8.3-7.4-12.7-17.5"/>
					<path id="&lt;Path&gt;" class="s13" d="m646.9 480.8c-5.3-17.5-14.4-21.8-21.5-22.3-1.1 0-1.5-1.5-0.5-2.1 4.1-2.2 12.1-4 22 6.9"/>
					<circle id="&lt;Path&gt;" class="s14" cx="542.5" cy="430.8" r="3"/>
					<circle id="&lt;Path&gt;" class="s14" cx="546.5" cy="464.8" r="3"/>
					<circle id="&lt;Path&gt;" class="s9" cx="556.6" cy="546.8" r="3"/>
					<g id="&lt;Group&gt;">
						<path id="&lt;Path&gt;" class="s10" d="m509.7 485.5q8.7 3.3 3.3 4.1c-5.4 0.7-11.3 7.2-16 7q-4.7-0.1 5.1-9.5z"/>
						<g id="&lt;Group&gt;">
							<path id="&lt;Path&gt;" class="s10" d="m562.8 498c-0.6 2.5-3.2 4-5.6 3.3l-19.8-5.6c-1-0.2-2-0.3-3-0.1-21.7 3.6-22.1-6.3-26-7.3-4-1-16.2 9-19.2 5.5q-3-3.5 12.9-12c-7.4-0.6-12.1 6-13.4 8q-0.3 0.6-0.8 1l-5 4.3c-0.8 0.7-1.8 1-2.9 1l-16.8-0.5c-1.4-1.4-1.7-3.4-0.8-5l2.1-3.9q0.4-0.6 0.9-1.1l10.2-9.3q0.7-0.7 1.6-1l16.9-4.9q0.9-0.3 1.9-0.1 27.2 5.7 36.4 6.3c5.2 0.3 19-0.7 23.8-1.1 1.2-0.1 2.4 0.3 3.3 1.1 6.2 5.6 4.8 15.6 3.3 21.4z"/>
							<path id="&lt;Path&gt;" class="s10" d="m476.8 496c-5.2 0.7-0.4-4.9 1.3-6.8q0.6-0.6 1.1-1.4l2.9-4.4q0.8-1.3 2-2.3l4.4-3.9c1.6-1.4 3.5-2.3 5.6-2.6l4.2-0.8"/>
							<path id="&lt;Path&gt;" class="s10" d="m468.4 495.7q-3-0.1 0-5.4l5.6-7.4q0.4-0.6 0.9-1l3.5-3.3c1-1 2.2-1.7 3.6-2.1l4.4-1.2"/>
						</g>
					</g>
					<path id="&lt;Path&gt;" class="s2" d="m614 401.6c-0.8 17.8 0.7 39.2 2.1 54.8 0.2 2.3-1.3 4.4-3.6 5.1-8.7 2.5-30.6 8.5-48.4 10.9"/>
					<path id="&lt;Path&gt;" class="s13" d="m615 389.2q-0.4 3.1-0.7 6.4"/>
					<path id="&lt;Path&gt;" class="s13" d="m621.7 370.5c-2.3 1.9-4 5.6-5.2 10.4"/>
					<path id="&lt;Path&gt;" class="s15" d="m521.5 358.6q1.3-4 8-6.3c6.8-2.2 30.1-5.8 42.2 0q12 5.9-11 37.7l-10.8 14.7-9.5 7.1-4.2-12.6-5.5-5.7q-11.9-9.8-10.9-19.4 1-9.6 1.7-15.5z"/>
					<g id="&lt;Clip Group&gt;" clip-path="url(#cp2)">
						<path id="&lt;Compound Path&gt;" fill-rule="evenodd" class="s16" d="m575.3 402q-14.9-8.3-21.2 0-6.4 8.3-14.4 12.3-3.6-10.3-5.6-15.1-2-4.9-13.7 0-8.3-18.7 0-42 8.7-14.9 49.7-7.9 8.6 1.9 10.4 8.5 4.4 27.5-5.2 44.2zm-7.3-49.3c-7.9-1.7-27.2-4.7-42.9 3.4-1 0.4-1.6 1.3-1.8 2.4-0.9 4.2-2.6 15.9 2.4 25.1 6.4 11.4 10.4 7.4 15 25.7q14-2.2 29.9-52c0.6-2-0.5-4.1-2.6-4.6z"/>
						<path id="&lt;Compound Path&gt;" fill-rule="evenodd" class="s6" d="m575.3 402q-14.9-8.3-21.2 0-6.4 8.3-14.4 12.3-3.6-10.3-5.6-15.1-2-4.9-13.7 0-8.3-18.7 0-42 8.7-14.9 49.7-7.9 8.6 1.9 10.4 8.5 4.4 27.5-5.2 44.2zm-7.3-49.3c-7.9-1.7-27.2-4.7-42.9 3.4-1 0.4-1.6 1.3-1.8 2.4-0.9 4.2-2.6 15.9 2.4 25.1 6.4 11.4 10.4 7.4 15 25.7q14-2.2 29.9-52c0.6-2-0.5-4.1-2.6-4.6z"/>
					</g>
					<g id="&lt;Group&gt;">
						<path id="&lt;Path&gt;" class="s7" d="m513.6 281.6q-35.3 7.1-15.9 30.1 21.6 25.4 15.9-30.1z"/>
						<path id="&lt;Path&gt;" class="s10" d="m499.7 337.7q-8.4-34 7.6-50.4c16-16.3 33.3-19.6 46.3-11.6 13 8 18.3 28 16.3 38.3-2 10.3-1 47.3-18.8 62.7-17.8 15.3-28.8 11.5-40.6-9.4-7.7-13.7-11.4-17.6-10.8-29.6z"/>
						<path id="&lt;Path&gt;" class="s7" d="m561.6 331q-13.4-13.3-17.6-29c-4.1-15.7-6.4-18.3-21.7-10.7-15.4 7.7-39.3-2.6-33-22 6.5-20.3 26.6 6 46-0.6 19.3-6.7 33 5.3 33 23q11.7 11.3 0 40.6z"/>
						<path id="&lt;Path&gt;" class="s10" d="m557.4 328.8q3.4-18.7 12.8-16.9c9.5 1.7 2.7 29.2-8.4 26.2"/>
						<path id="&lt;Path&gt;" class="s10" d="m522.6 356.1q-11.5 2.2-12.7-0.7-1.2-3 2.5-20.3"/>
						<path id="&lt;Path&gt;" class="s10" d="m524.2 363.6q8.9 3.5 16.8-8.2"/>
						<path id="&lt;Path&gt;" class="s17" d="m506.3 336.5c0.3 1.6-0.1 3.1-0.9 3.3-0.9 0.2-1.9-1-2.2-2.6-0.3-1.6 0.1-3.1 0.9-3.3 0.9-0.1 1.9 1 2.2 2.6z"/>
						<path id="&lt;Path&gt;" class="s17" d="m528.2 334.8c0.4 1.6-0.1 3-0.9 3.2-0.9 0.2-1.8-1-2.2-2.6-0.3-1.6 0.1-3 1-3.2 0.8-0.2 1.8 1 2.1 2.6z"/>
						<path id="&lt;Path&gt;" class="s2" d="m510.9 335.8c0.5 4.5-4.1 8.7-10.2 9.3-6 0.6-11.3-2.6-11.8-7.1-0.4-4.5 4.3-6.5 10.4-7.2 6.1-0.6 11.2 0.5 11.6 5z"/>
						<path id="&lt;Path&gt;" class="s2" d="m539.2 333c0.5 4.5-4.1 8.7-10.2 9.3-6 0.6-11.3-2.6-11.8-7.1-0.4-4.6 4.3-6.6 10.4-7.2 6.1-0.6 11.2 0.4 11.6 5z"/>
						<path id="&lt;Path&gt;" class="s10" d="m510.9 335.8l6.3-0.6"/>
						<path id="&lt;Path&gt;" class="s10" d="m538.4 330.7l23.3-13.7"/>
						<path id="&lt;Path&gt;" class="s10" d="m565.7 352l1.1 2.7"/>
						<path id="&lt;Path&gt;" class="s10" d="m497.8 328.5q3.5-4.5 7.9-2.4"/>
						<path id="&lt;Path&gt;" class="s10" d="m534 326.5q-6.2-6-12.2-1.8"/>
						<g id="&lt;Group&gt;">
							<path id="&lt;Path&gt;" class="s12" d="m505.7 271.6c9.4 3 25.3 6.7 38.3 2.7 19.9-6 13.2 16.4 17.7 22.6"/>
							<path id="&lt;Path&gt;" class="s12" d="m497.5 268.6q1.6 0.7 4.2 1.7"/>
						</g>
						<g id="&lt;Group&gt;">
							<path id="&lt;Path&gt;" class="s12" d="m521.4 282.7q1.5-0.4 3.3-1.1"/>
							<path id="&lt;Path&gt;" class="s12" d="m499.7 280.1q4.2 6.5 17.8 3.6"/>
						</g>
						<g id="&lt;Group&gt;">
							<path id="&lt;Path&gt;" class="s12" d="m550.5 292.9c0.8 5.7 2.9 14 8.4 21.4"/>
							<path id="&lt;Path&gt;" class="s12" d="m549.9 285.8q0 1.4 0.2 3.6"/>
						</g>
					</g>
					<path id="&lt;Path&gt;" class="s3" d="m623.4 491.1c14-7.3 27.4 11.7 9.9 12.7-14.2 0.9-50.6 0.8-64.1 0.7-2.2 0-3.1-2.7-1.5-4.1 15.4-13.8 42.7-2.6 55.7-9.3z"/>
				</g>
				<path id="&lt;Path&gt;" class="s10" d="m415.4 481.6q8.2-21.7 28.7-18.3c20.7 3.5 4.9 20.7-5 22.2q-1.5-6-23.7-3.9z"/>
				<path id="&lt;Path&gt;" class="s10" d="m398 494c-2.7 2.7-9.2 2.9-4.8-2.9 4.8-6.5 10.3-8.7 14-10.4 9.7-4.3 13.5-3.4 22.3-5.4 8.9-1.9 10.5 1.7 13.5 3.4 7.3 3.9 9 4.6 10.9 8.6 1.8 4 3.8 9.2-1.9 9.2-5.1 0-5.5-8.5-10.5-8.2-5 0.4-7.5 8.2-11 8.2-3.5 0 1.7 0-1.3 0-3 0-3.1-2.5-1.3-6.4q1.8-3.9 3.8-7.4-4.3 1.9-6.7 7.1c-2.4 5.1-2.9 7.2-7.3 7.2-4.4 0-4.1-3.3 0.3-10.5q-4 2.2-6.1 6.2c-2.2 4.1-3.3 3.8-6.1 3.8-3.8 0-3.5-6.1 3.1-10.1q-1.5-1.8-10.9 7.6z"/>
				<path id="&lt;Path&gt;" class="s18" d="m423.8 479.4q-2.6-0.1-4.3 4.2"/>
			</g>
		</g>
	</g>
	<g id="Code">
		<g id="&lt;Group&gt;">
			<g id="&lt;Group&gt;">
				<path id="&lt;Path&gt;" class="s13" d="m752.4 291.1c12.8 10 25.1 20.9 36.8 32.7"/>
				<path id="&lt;Path&gt;" class="s13" d="m738.4 280.6q3.7 2.6 7.3 5.3"/>
				<path id="&lt;Path&gt;" class="s13" d="m724.5 271q3.8 2.5 7.5 5"/>
				<path id="&lt;Path&gt;" class="s13" d="m622.2 222.6c32.7 10.2 64.4 24.6 94.2 43.2"/>
				<path id="&lt;Path&gt;" class="s13" d="m600.3 216.4q6.1 1.6 12.1 3.3"/>
				<path id="&lt;Path&gt;" class="s13" d="m577.9 211.5q6.6 1.2 13.1 2.7"/>
				<path id="&lt;Path&gt;" class="s13" d="m557.8 208.1q5.7 0.8 11.4 1.8"/>
				<path id="&lt;Path&gt;" class="s13" d="m437.2 208.9c37.1-5.7 74.8-6.4 112-1.9"/>
				<path id="&lt;Path&gt;" class="s13" d="m420.7 211.8q5.1-1 10.2-1.9"/>
				<path id="&lt;Path&gt;" class="s13" d="m404.7 215.3q5.1-1.2 10.3-2.3"/>
				<path id="&lt;Path&gt;" class="s13" d="m385 220.6q5.2-1.6 10.5-3"/>
				<path id="&lt;Path&gt;" class="s13" d="m266 277.8c33.7-23.6 70.1-41.6 108-53.8"/>
			</g>
			<path id="&lt;Path&gt;" class="s13" d="m249.9 289.6q4.7-3.6 9.5-7.1"/>
			<path id="&lt;Path&gt;" class="s13" d="m233.8 302.8q5.1-4.4 10.4-8.6"/>
			<path id="&lt;Path&gt;" class="s13" d="m211.3 323.8q7-7.1 14.3-13.7"/>
		</g>
		<g id="&lt;Group&gt;">
			<g id="&lt;Group&gt;">
				<g id="&lt;Clip Group&gt;" clip-path="url(#cp3)">
					<circle id="&lt;Path&gt;" class="s5" cx="317.9" cy="250.7" r="49.8"/>
					<circle id="&lt;Path&gt;" class="s19" cx="317.9" cy="250.7" r="49.8"/>
				</g>
			</g>
			<g id="&lt;Group&gt;">
				<path id="&lt;Compound Path&gt;" class="s18" d="m294.1 270.3v-12.5c0-3.1-0.9-4.1-4.3-4.1v-6.1c3.4 0 4.3-0.9 4.3-4v-12.5c0-5.1 3.3-7.5 7.5-7.5h3.8v6.1h-1.1c-2.4 0-3.6 1.1-3.6 4.8v10.2c0 2.4-0.9 5-4.1 5.9v0.2c3.2 0.9 4.1 3.5 4.1 5.9v10.2c0 3.7 1.2 4.8 3.6 4.8h1.1v6.1h-3.8c-4.2 0-7.5-2.4-7.5-7.5z"/>
				<path id="&lt;Compound Path&gt;" class="s18" d="m330.5 271.7h1c2.4 0 3.6-1.1 3.6-4.8v-10.2c0-2.4 0.9-5 4.2-5.9v-0.2c-3.3-0.9-4.2-3.5-4.2-5.9v-10.2c0-3.7-1.2-4.8-3.6-4.8h-1v-6.1h3.8c4.2 0 7.5 2.4 7.5 7.5v12.5c0 3.1 0.9 4 4.2 4v6.1c-3.3 0-4.2 1-4.2 4.1v12.5c0 5.1-3.3 7.5-7.5 7.5h-3.8z"/>
			</g>
		</g>
		<g id="&lt;Group&gt;">
			<rect id="&lt;Path&gt;" class="s19" x="168.9" y="314.2" width="76.5" height="76.5" rx="23.9"></rect>
			<g id="&lt;Group&gt;">
				<path id="&lt;Compound Path&gt;" class="s18" d="m179.4 354.3v-3.7l15.3-6.6v4l-10.5 4.5 10.5 4.4v4z"/>
				<path id="&lt;Compound Path&gt;" class="s18" d="m211.7 335h4.7l-13.8 35h-4.7z"/>
				<path id="&lt;Compound Path&gt;" class="s18" d="m219.6 356.9l10.5-4.4-10.5-4.5v-4l15.3 6.6v3.7l-15.3 6.6z"/>
			</g>
		</g>
		<g id="&lt;Group&gt;">
			<g id="&lt;Clip Group&gt;" clip-path="url(#cp4)">
				<circle id="&lt;Path&gt;" class="s20" cx="670.9" cy="239.4" r="42.5"/>
				<circle id="&lt;Path&gt;" class="s19" cx="670.9" cy="239.4" r="42.5"/>
			</g>
			<text id="Js" style="transform: matrix(1,0,0,1,656,249);paint-order:stroke fill markers;stroke: #263138;stroke-width: 2;stroke-linejoin: round;" >
				<tspan x="0" y="0" class="t21">J</tspan><tspan  y="0" class="t21">s</tspan><tspan  y="0" class="t21">
</tspan>
			</text>
		</g>
		<g id="&lt;Group&gt;">
			<rect id="&lt;Path&gt;" class="s19" x="442.6" y="156.5" width="92.8" height="92.8" rx="27.2"></rect>
			<text id="DART" style="transform: matrix(1,0,0,1,450,212);paint-order:stroke fill markers;stroke: #263138;stroke-width: 2;stroke-linejoin: round;" >
				<tspan x="0" y="0" class="t22">D</tspan><tspan  y="0" class="t22">A</tspan><tspan  y="0" class="t22">R</tspan><tspan  y="0" class="t22">T
</tspan>
			</text>
		</g>
		<g id="&lt;Group&gt;">
			<g id="&lt;Clip Group&gt;" clip-path="url(#cp5)">
				<circle id="&lt;Path&gt;" class="s5" cx="783.2" cy="329.3" r="42.4"/>
				<circle id="&lt;Path&gt;" class="s19" cx="783.2" cy="329.3" r="42.4"/>
			</g>
			<text id="CSS" style="transform: matrix(1,0,0,1,757,339);paint-order:stroke fill markers;stroke: #263138;stroke-width: 2;stroke-linejoin: round;" >
				<tspan x="0" y="0" class="t22">C</tspan><tspan  y="0" class="t22">S</tspan><tspan  y="0" class="t22">S
</tspan>
			</text>
		</g>
	</g>
	<g id="Desk">
		<g id="&lt;Group&gt;">
			<path id="&lt;Path&gt;" class="s8" d="m282.5 817h-7.5l-2-294.5h9.5z"/>
			<path id="&lt;Path&gt;" class="s9" d="m289.9 817h-7.4v-294.5h9.4z"/>
			<path id="&lt;Path&gt;" class="s7" d="m706 522.5h-508.4v-18h508.4z"/>
			<path id="&lt;Path&gt;" class="s8" d="m812.2 522.5h-113.8v-18h113.8z"/>
			<path id="&lt;Path&gt;" class="s23" d="m729 552.2h-505.4v-29.7h505.4z"/>
			<g id="&lt;Clip Group&gt;" clip-path="url(#cp6)">
				<path id="&lt;Path&gt;" class="s23" d="m729 522.5h58.9v29.7h-58.9z"/>
				<path id="&lt;Path&gt;" class="s24" d="m729 522.5h58.9v29.7h-58.9z"/>
			</g>
			<path id="&lt;Path&gt;" class="s8" d="m729 817h-7.4l-2-294.5h9.4z"/>
			<path id="&lt;Path&gt;" class="s9" d="m736.5 817h-7.5v-294.5h9.5z"/>
			<path id="&lt;Path&gt;" class="s8" d="m223.6 817h-7.4l-2-294.5h9.4z"/>
			<path id="&lt;Path&gt;" class="s9" d="m231 817h-7.4v-294.5h9.4z"/>
			<g id="&lt;Group&gt;">
				<path id="&lt;Path&gt;" class="s8" d="m787.9 817h-7.4l-2-294.5h9.4z"/>
				<path id="&lt;Path&gt;" class="s9" d="m795.3 817h-7.4v-294.5h9.4z"/>
			</g>
		</g>
		<g id="&lt;Group&gt;">
			<g id="&lt;Group&gt;">
				<path id="&lt;Path&gt;" class="s8" d="m526.1 502.5h-59.6c-1.2 0-2.2-1-2.2-2.2v-5l64 2v3c0 1.2-1 2.2-2.2 2.2z"/>
				<path id="&lt;Path&gt;" class="s9" d="m457.7 502.5h-119.8c-1.9 0-3.8-1.5-4.4-3.4l-25.7-83.4c-0.7-2.3 0.7-4.4 3-4.4h119.8c1.9 0 3.8 1.5 4.4 3.4l25.7 83.4c0.7 2.3-0.7 4.4-3 4.4z"/>
				<path id="&lt;Path&gt;" class="s8" d="m463 502.5h-5.3c2.3 0 3.7-2.1 3-4.4l-25.7-83.4c-0.6-1.9-2.5-3.4-4.4-3.4h5.4c1.9 0 3.8 1.5 4.4 3.4l25.7 83.4c0.7 2.3-0.7 4.4-3.1 4.4z"/>
			</g>
			<path id="&lt;Path&gt;" class="s10" d="m391.7 456.9c0.5 4.1-2.5 7.4-6.5 7.4-4.1 0-7.9-3.3-8.4-7.4-0.5-4.1 2.4-7.4 6.5-7.4 4.1 0 7.8 3.3 8.4 7.4z"/>
		</g>
	</g>
	<text id="@AimadBahdir" style="opacity: .2;transform: matrix(1,0,0,1,240,543);paint-order:stroke fill markers;stroke: #263138;stroke-width: 2;stroke-linejoin: round;" >
		<tspan x="0" y="0" class="t25">@</tspan><tspan  y="0" class="t25">A</tspan><tspan  y="0" class="t25">i</tspan><tspan  y="0" class="t25">m</tspan><tspan  y="0" class="t25">a</tspan><tspan  y="0" class="t25">d</tspan><tspan  y="0" class="t25">B</tspan><tspan  y="0" class="t25">a</tspan><tspan  y="0" class="t25">h</tspan><tspan  y="0" class="t25">d</tspan><tspan  y="0" class="t25">i</tspan><tspan  y="0" class="t25">r
</tspan>
	</text>
</svg>